<svg id="Layer_1" data-name="Layer 1" xmlns="http://www.w3.org/2000/svg" viewBox="0 0 354.38 62.11"><defs><style>.cls-1{fill:#1a58a8;}</style></defs><title>JobsTeam</title><path class="cls-1" d="M208.12,328.26a49.87,49.87,0,0,1-.36,5.7,15.46,15.46,0,0,1-1.93,5.9,12.91,12.91,0,0,1-4.65,4.66q-3.09,1.89-8.63,1.88-6.26,0-9.91-3.17a15.35,15.35,0,0,1-4.86-8.47l5.3-1q1.92,7.78,9.47,7.78a11.14,11.14,0,0,0,4.77-.92,8.24,8.24,0,0,0,3.17-2.53,10.68,10.68,0,0,0,1.77-3.81,19.44,19.44,0,0,0,.56-4.78V288.14h5.3v40.13Z" transform="translate(-177.78 -284.29)"/><path class="cls-1" d="M220.23,326.42a20.73,20.73,0,0,1,1.44-7.82,18.74,18.74,0,0,1,4-6.18,17.86,17.86,0,0,1,6.18-4.05,21,21,0,0,1,7.86-1.44,20.67,20.67,0,0,1,7.82,1.44,18.14,18.14,0,0,1,10.23,10.23,21.93,21.93,0,0,1,0,15.65,18.17,18.17,0,0,1-10.23,10.23,20.73,20.73,0,0,1-7.82,1.44,21,21,0,0,1-7.86-1.44,17.82,17.82,0,0,1-6.18-4.06,18.69,18.69,0,0,1-4-6.18A20.72,20.72,0,0,1,220.23,326.42Zm4.82,0a17.16,17.16,0,0,0,1,5.9,13.8,13.8,0,0,0,2.93,4.82,14.14,14.14,0,0,0,4.65,3.25,16,16,0,0,0,12.2,0,14.14,14.14,0,0,0,4.65-3.25,13.8,13.8,0,0,0,2.93-4.82,17.85,17.85,0,0,0,0-11.79,13.8,13.8,0,0,0-2.93-4.82,14.09,14.09,0,0,0-4.65-3.25,16,16,0,0,0-12.2,0A14.09,14.09,0,0,0,229,315.7a13.8,13.8,0,0,0-2.93,4.82A17.16,17.16,0,0,0,225,326.42Z" transform="translate(-177.78 -284.29)"/><path class="cls-1" d="M268.94,284.29h4.81v30.09h0.16a12.45,12.45,0,0,1,2.81-3.33,16.86,16.86,0,0,1,3.65-2.33,18.31,18.31,0,0,1,4.13-1.36,21.33,21.33,0,0,1,4.25-.44,20.67,20.67,0,0,1,7.82,1.44,18.15,18.15,0,0,1,10.23,10.23,21.88,21.88,0,0,1,0,15.65,18.18,18.18,0,0,1-10.23,10.23,20.73,20.73,0,0,1-7.82,1.44,21.33,21.33,0,0,1-4.25-.44,18.31,18.31,0,0,1-4.13-1.36,16.86,16.86,0,0,1-3.65-2.33,12.45,12.45,0,0,1-2.81-3.33h-0.16V345h-4.81V284.29Zm4.33,42.13a14.66,14.66,0,0,0,1.2,5.9,15.11,15.11,0,0,0,3.29,4.82,15.78,15.78,0,0,0,4.89,3.25,15.3,15.3,0,0,0,6.1,1.2,15,15,0,0,0,6.1-1.2,14.17,14.17,0,0,0,4.65-3.25,13.8,13.8,0,0,0,2.93-4.82,17.85,17.85,0,0,0,0-11.79,13.8,13.8,0,0,0-2.93-4.82,14.12,14.12,0,0,0-4.65-3.25,15,15,0,0,0-6.1-1.2,15.3,15.3,0,0,0-6.1,1.2,15.73,15.73,0,0,0-4.89,3.25,15.11,15.11,0,0,0-3.29,4.82A14.66,14.66,0,0,0,273.28,326.42Z" transform="translate(-177.78 -284.29)"/><path class="cls-1" d="M319.1,335.48a10.38,10.38,0,0,0,4.49,4.54,13.26,13.26,0,0,0,6.26,1.56,10,10,0,0,0,3-.48,9.28,9.28,0,0,0,2.73-1.36,7.39,7.39,0,0,0,2-2.13,5.32,5.32,0,0,0,.76-2.85,4.59,4.59,0,0,0-1.65-3.85,12.19,12.19,0,0,0-4.05-2,48.45,48.45,0,0,0-5.3-1.24,22.45,22.45,0,0,1-5.3-1.61,11.36,11.36,0,0,1-4.05-3,8.15,8.15,0,0,1-1.65-5.46,9.54,9.54,0,0,1,1.12-4.73,10.32,10.32,0,0,1,2.93-3.33,12.63,12.63,0,0,1,4.05-2,16.59,16.59,0,0,1,4.57-.64A17.32,17.32,0,0,1,337,308.6a11.7,11.7,0,0,1,5.18,5.3l-4.33,2.57a10.18,10.18,0,0,0-3.41-3.89,9.65,9.65,0,0,0-5.34-1.33,9.76,9.76,0,0,0-2.69.4,9.46,9.46,0,0,0-2.53,1.12,6.51,6.51,0,0,0-1.89,1.84,4.47,4.47,0,0,0-.76,2.57,4.27,4.27,0,0,0,1.64,3.69,12.61,12.61,0,0,0,4.06,1.89,49,49,0,0,0,5.3,1.16,21.48,21.48,0,0,1,5.3,1.56,10.87,10.87,0,0,1,4.05,3.13,9.1,9.1,0,0,1,1.64,5.82,10.93,10.93,0,0,1-1.08,5,10.41,10.41,0,0,1-3,3.57,13.29,13.29,0,0,1-4.29,2.17,17.57,17.57,0,0,1-5.06.72,20.64,20.64,0,0,1-8.79-1.84,13.34,13.34,0,0,1-6.14-5.7Z" transform="translate(-177.78 -284.29)"/><path class="cls-1" d="M367.17,293H347.75v-4.82h44.14V293H372.46v52h-5.3V293Z" transform="translate(-177.78 -284.29)"/><path class="cls-1" d="M423.1,338a16.25,16.25,0,0,1-6.94,6.1,22.12,22.12,0,0,1-9.11,1.84,19.81,19.81,0,0,1-7.7-1.44,17.35,17.35,0,0,1-5.94-4.06,17.76,17.76,0,0,1-3.81-6.18,22.54,22.54,0,0,1-1.33-7.91,21.18,21.18,0,0,1,1.36-7.7,18.37,18.37,0,0,1,3.85-6.14,18,18,0,0,1,5.86-4.09,18.32,18.32,0,0,1,7.46-1.49,17.9,17.9,0,0,1,7.5,1.49,16.4,16.4,0,0,1,5.46,3.93,16.66,16.66,0,0,1,3.33,5.58,18.67,18.67,0,0,1,1.12,6.34v3.37H393.09a16.47,16.47,0,0,0,.6,3.89,13.91,13.91,0,0,0,6.5,8.46,13.37,13.37,0,0,0,6.94,1.61,15.49,15.49,0,0,0,7.14-1.77,12.88,12.88,0,0,0,5.3-4.81Zm-3.69-14.69a10.94,10.94,0,0,0-1-4.65,12.48,12.48,0,0,0-2.73-3.81,12.94,12.94,0,0,0-4.09-2.61,13.15,13.15,0,0,0-5-1,12.27,12.27,0,0,0-6.54,1.61,14.32,14.32,0,0,0-4.13,3.69,14.63,14.63,0,0,0-2.17,4.05,10.75,10.75,0,0,0-.64,2.69h26.32Z" transform="translate(-177.78 -284.29)"/><path class="cls-1" d="M463.79,329.38q0,2.73,0,4.89t0.12,4c0.05,1.23.12,2.38,0.2,3.45s0.2,2.14.36,3.21H460a34.49,34.49,0,0,1-.48-6h-0.16a13.52,13.52,0,0,1-5.18,5.3,16.23,16.23,0,0,1-7.82,1.68,19,19,0,0,1-4.73-.6,12.43,12.43,0,0,1-4.17-1.93,9.9,9.9,0,0,1-4.17-8.47,9.9,9.9,0,0,1,2.17-6.74,13.47,13.47,0,0,1,5.34-3.73,25.36,25.36,0,0,1,6.74-1.61q3.57-.36,6.3-0.36h5.62v-2.25q0-4.81-3-6.9a12.67,12.67,0,0,0-7.46-2.09,16.92,16.92,0,0,0-11.31,4.17l-2.81-3.29a17.16,17.16,0,0,1,6.58-3.89,23.63,23.63,0,0,1,7.54-1.32q6.74,0,10.75,3.17t4,10.23v9.07Zm-9.63-3a42.25,42.25,0,0,0-5.9.4,20.53,20.53,0,0,0-5.13,1.36,9.61,9.61,0,0,0-3.65,2.57,6,6,0,0,0-1.36,4,5.91,5.91,0,0,0,.76,3,6.67,6.67,0,0,0,2,2.16,9.25,9.25,0,0,0,2.69,1.29,10.53,10.53,0,0,0,3,.44,15.51,15.51,0,0,0,6.34-1.12,10.83,10.83,0,0,0,4-2.93,10.22,10.22,0,0,0,2-4.09,19.37,19.37,0,0,0,.56-4.61v-2.49h-5.3Z" transform="translate(-177.78 -284.29)"/><path class="cls-1" d="M476.63,318.31q0-1-.08-2.53c-0.06-1-.09-2-0.12-3s-0.07-2-.12-2.85-0.08-1.57-.08-2H481q0.08,2.09.12,4a12.55,12.55,0,0,0,.2,2.49h0.24a13,13,0,0,1,4.81-5.26,14,14,0,0,1,7.87-2.21A12.57,12.57,0,0,1,501,308.8a10.69,10.69,0,0,1,4.41,6.14,12,12,0,0,1,5.26-6.1,15,15,0,0,1,7.34-1.93,15.79,15.79,0,0,1,7.06,1.36,11.41,11.41,0,0,1,4.29,3.57,13.47,13.47,0,0,1,2.16,5.1,29,29,0,0,1,.6,5.94V345h-4.82V323.12a23.52,23.52,0,0,0-.4-4.37,11.57,11.57,0,0,0-1.4-3.81,7.35,7.35,0,0,0-2.81-2.69,9.66,9.66,0,0,0-4.7-1,11,11,0,0,0-5.53,1.24,9.75,9.75,0,0,0-3.41,3.17,13.11,13.11,0,0,0-1.77,4.17,18.92,18.92,0,0,0-.52,4.25V345H502V322.64a15.92,15.92,0,0,0-1.88-8.26,6.33,6.33,0,0,0-5.82-3.13,13.71,13.71,0,0,0-5,.92,10.78,10.78,0,0,0-4.09,2.81,13.62,13.62,0,0,0-2.73,4.73,20.18,20.18,0,0,0-1,6.7V345h-4.82V318.31Z" transform="translate(-177.78 -284.29)"/></svg>